<!-- Generated by IcoMoon.io -->
<svg version="1.1" xmlns="http://www.w3.org/2000/svg" width="32" height="32" viewBox="0 0 32 32">
<title>beard-cut</title>
<path fill="#008fdd" d="M15.212 12.675v-1.511h1.511v1.511h-1.511zM15.433 20.469c-0.137 0.136-0.221 0.324-0.221 0.532 0 0.001 0 0.002 0 0.002v-0 2.834c0 0.202 0.079 0.392 0.221 0.535s0.333 0.221 0.534 0.221c0.202 0 0.391-0.079 0.534-0.221 0.142-0.143 0.221-0.333 0.221-0.535v-2.834c0-0.202-0.079-0.392-0.221-0.535-0.136-0.137-0.324-0.221-0.532-0.221-0.001 0-0.002 0-0.002 0h0c-0.202 0-0.392 0.079-0.534 0.221z"></path>
<path fill="#008fdd" d="M18.046 13.336c0 0 0 0.001 0 0.001 0 0.183-0.074 0.348-0.194 0.467l-0 0c-0.119 0.12-0.285 0.194-0.467 0.194-0 0-0.001 0-0.001 0h-2.834c-0 0-0 0-0 0-0.365 0-0.662-0.296-0.662-0.662v0-2.173h-3.897v12.32c0 1.597 0.622 3.097 1.75 4.226 0.927 0.932 2.161 1.557 3.537 1.712l0.027 0.002v1.576c0 0.365 0.296 0.662 0.662 0.662s0.662-0.296 0.662-0.662v-1.576c1.403-0.157 2.637-0.782 3.564-1.714l0-0c1.081-1.076 1.75-2.565 1.75-4.21 0-0.006 0-0.011-0-0.017v0.001-12.32h-3.897v2.173zM18.046 21.004v2.834c0 0.002 0 0.004 0 0.005 0 0.572-0.233 1.090-0.609 1.465l-0 0c-0.374 0.376-0.892 0.609-1.464 0.609-0.002 0-0.004 0-0.006 0h0c-0.002 0-0.003 0-0.005 0-0.572 0-1.090-0.233-1.464-0.609l-0-0c-0.376-0.374-0.609-0.892-0.609-1.465 0-0.002 0-0.004 0-0.006v0-2.834c0-0.002 0-0.004 0-0.006 0-0.572 0.233-1.090 0.609-1.464l0-0c0.374-0.376 0.892-0.609 1.465-0.609 0.002 0 0.004 0 0.006 0h-0c0.555 0 1.078 0.216 1.47 0.609 0.376 0.374 0.609 0.892 0.609 1.465 0 0.002 0 0.004 0 0.006v-0zM21.282 5.589c-0.365 0-0.662 0.296-0.662 0.662v0 0.756h-0.803v-0.756c-0.012-0.356-0.303-0.641-0.662-0.641s-0.65 0.285-0.661 0.64l-0 0.001v0.756h-0.803v-0.756c0-0.006 0-0.014 0-0.021 0-0.366-0.296-0.662-0.662-0.662s-0.662 0.296-0.662 0.662c0 0.007 0 0.015 0 0.022l-0-0.001v0.756h-0.803v-0.756c0-0.365-0.296-0.662-0.662-0.662s-0.662 0.296-0.662 0.662v0l-0 0.756h-0.803v-0.756c0-0.365-0.296-0.662-0.662-0.662s-0.662 0.296-0.662 0.662v0 0.756h-0.803v-0.756c0-0.365-0.296-0.662-0.662-0.662s-0.662 0.296-0.662 0.662v0 3.591l11.952-0v-3.59c0-0 0-0 0-0 0-0.365-0.296-0.661-0.661-0.661-0 0-0 0-0 0h0z"></path>
</svg>
