<!-- Generated by IcoMoon.io -->
<svg version="1.1" xmlns="http://www.w3.org/2000/svg" width="32" height="32" viewBox="0 0 32 32">
<title>facial-pack</title>
<path fill="#008fdd" d="M3.75 0v3.75h-0.937v1.875h7.5v-1.875h-0.938v-1.875h4.299l1.601 1.6 1.326-1.325-2.149-2.15h-10.701zM22.562 25.376c0.012 0.508 0.427 0.916 0.937 0.916s0.926-0.408 0.937-0.916l0-0.001c-0.008-0.288-0.398-1.104-0.937-2.012-0.54 0.91-0.93 1.726-0.938 2.013z"></path>
<path fill="#008fdd" d="M28.25 15.062v-1.874h-9.5v1.875h-1.517c-1.61 3.253-2.233 6.197-2.233 8.438 0 2.238 0.621 5.244 2.233 8.5h12.534c1.61-3.254 2.233-6.26 2.233-8.5 0-2.238-0.621-5.181-2.233-8.438h-1.517zM23.5 28.187c-1.553-0.002-2.811-1.26-2.813-2.812v-0c0-1.199 1.427-3.394 2.041-4.283l0.772-1.117 0.772 1.117c0.613 0.889 2.041 3.084 2.041 4.283 0 1.551-1.262 2.812-2.813 2.812zM18.75 5.625h9.5v5.687h-9.5v-5.687zM5.625 21.626c0.021 0.502 0.432 0.901 0.937 0.901s0.917-0.399 0.937-0.9l0-0.002c-0.008-0.288-0.399-1.105-0.938-2.012-0.54 0.91-0.93 1.726-0.937 2.013zM0 28.188h13.125v3.812h-13.125v-3.812zM0 7.5h13.125v3.812h-13.125v-3.812z"></path>
<path fill="#008fdd" d="M13.125 13.188h-13.125v13.125h13.125v-13.125zM6.562 24.437c-1.552-0.002-2.81-1.26-2.812-2.812v-0c0-1.199 1.427-3.394 2.040-4.283l0.772-1.117 0.772 1.117c0.613 0.889 2.041 3.085 2.041 4.283 0 1.551-1.262 2.812-2.812 2.812z"></path>
</svg>
