<!-- Generated by IcoMoon.io -->
<svg version="1.1" xmlns="http://www.w3.org/2000/svg" width="30" height="32" viewBox="0 0 30 32">
<title>google-plus</title>
<path fill="#fff" d="M25.942 13.099v-3.93h-2.62v3.93h-3.931v2.621h3.931v3.93h2.62v-3.93h3.93v-2.621h-3.93zM15.856 17.553l-1.441-1.049c-0.525-0.393-1.049-0.917-1.049-1.834 0-0.917 0.655-1.702 1.31-2.096 1.703-1.31 3.406-2.751 3.406-5.632 0-2.752-1.702-4.323-2.62-5.109h2.227l1.572-1.834h-8.122c-5.764 0-8.646 3.668-8.646 7.598 0 3.012 2.357 6.287 6.549 6.287h1.049c-0.131 0.394-0.524 1.049-0.524 1.703 0 1.31 0.524 1.834 1.179 2.62-1.835 0.13-5.239 0.523-7.728 2.096-2.358 1.44-3.013 3.405-3.013 4.846 0 3.013 2.751 5.895 8.645 5.895 7.074 0 10.48-3.931 10.48-7.729 0-2.751-1.441-4.192-3.275-5.763zM5.899 5.632c0-2.882 1.703-4.192 3.537-4.192 3.406 0 5.239 4.585 5.239 7.204 0 3.406-2.751 4.061-3.798 4.061-3.275 0-4.978-4.061-4.978-7.073zM10.615 29.21c-4.322 0-7.073-1.965-7.073-4.847 0-2.881 2.62-3.797 3.406-4.192 1.702-0.523 3.93-0.654 4.322-0.654h0.917c3.143 2.226 4.453 3.143 4.453 5.239 0 2.489-2.489 4.453-6.026 4.453z"></path>
</svg>
