<!-- Generated by IcoMoon.io -->
<svg version="1.1" xmlns="http://www.w3.org/2000/svg" width="32" height="32" viewBox="0 0 32 32">
<title>notification</title>
<path fill="#99baed" d="M26.36 15.528c-0.974-1.138-1.417-2.123-1.417-3.798v-0.569c0-2.182-0.502-3.589-1.594-4.994-1.683-2.184-4.516-3.499-7.29-3.499h-0.117c-2.715 0-5.46 1.256-7.172 3.35-1.152 1.435-1.712 2.901-1.712 5.143v0.57c0 1.675-0.414 2.661-1.417 3.797-0.738 0.838-0.974 1.915-0.974 3.080 0 1.167 0.383 2.273 1.151 3.171 0.985 1.048 2.334 1.743 3.844 1.882l0.024 0.002c2.095 0.238 4.19 0.328 6.315 0.328 2.124 0 4.219-0.15 6.316-0.328 1.533-0.142 2.881-0.837 3.862-1.881l0.003-0.003c0.767-0.899 1.151-2.004 1.151-3.171 0-1.166-0.236-2.242-0.974-3.080z"></path>
<path fill="#aeaeae" opacity="0.4" d="M18.678 25.638c-0.667-0.142-4.728-0.142-5.394 0-0.57 0.131-1.186 0.437-1.186 1.109 0.033 0.64 0.408 1.205 0.928 1.564l-0.002 0.002c0.634 0.499 1.411 0.845 2.259 0.972l0.027 0.003c0.44 0.061 0.888 0.059 1.344 0 0.874-0.13 1.65-0.477 2.295-0.983l-0.010 0.008-0.002-0.002c0.52-0.358 0.894-0.924 0.928-1.564 0-0.672-0.616-0.978-1.186-1.109z"></path>
<path fill="#ff5050" stroke="#fff" stroke-linejoin="miter" stroke-linecap="butt" stroke-miterlimit="4" stroke-width="0.7619" d="M28.588 5.662c0.052 3.347-2.619 6.101-5.966 6.153s-6.101-2.619-6.153-5.966c-0.052-3.347 2.619-6.101 5.966-6.153s6.101 2.619 6.153 5.966z"></path>
<path fill="#fff" d="M22.381 3.994c-0.542 0.002-1.048 0.158-1.476 0.426l0.012-0.007 0.187 0.789c0.448-0.266 0.845-0.402 1.19-0.407 0.254-0.004 0.456 0.043 0.604 0.143 0.142 0.083 0.236 0.235 0.236 0.409 0 0.005-0 0.010-0 0.014l0-0.001c0.002 0.147-0.056 0.306-0.175 0.475s-0.309 0.368-0.57 0.595l-1.519 1.334 0.011 0.663 3.368-0.052-0.104-0.753-1.928 0.030 0.715-0.613c0.386-0.335 0.655-0.625 0.81-0.866 0.153-0.242 0.228-0.53 0.222-0.865-0-0.254-0.075-0.49-0.204-0.688l0.003 0.005c-0.13-0.201-0.312-0.358-0.549-0.472s-0.513-0.168-0.833-0.162z"></path>
</svg>
