<!-- Generated by IcoMoon.io -->
<svg version="1.1" xmlns="http://www.w3.org/2000/svg" width="32" height="32" viewBox="0 0 32 32">
<title>profile</title>
<path fill="#99baed" d="M15.995 20.232c-5.75 0-10.662 0.907-10.662 4.533 0 3.628 4.881 4.567 10.662 4.567 5.751 0 10.663-0.905 10.663-4.533s-4.88-4.567-10.663-4.567z"></path>
<path fill="#a4a4a4" opacity="0.4" d="M15.995 16.778c0.007 0 0.016 0 0.025 0 3.883 0 7.031-3.148 7.031-7.031 0-0.009 0-0.017-0-0.026v0.001c0-3.916-3.139-7.056-7.055-7.056-0.007-0-0.016-0-0.024-0-3.884 0-7.032 3.149-7.032 7.032 0 0.008 0 0.016 0 0.024v-0.001c-0 0.007-0 0.016-0 0.024 0 3.883 3.148 7.032 7.032 7.032 0.009 0 0.017 0 0.026-0h-0.001z"></path>
</svg>
