<!-- Generated by IcoMoon.io -->
<svg version="1.1" xmlns="http://www.w3.org/2000/svg" width="29" height="32" viewBox="0 0 29 32">
<title>scissors</title>
<path fill="#99baed" d="M15.484 0.282c-2.166 0.189-3.813 2.102-3.623 4.269l0.975 11.14-3.686 1.718c-1.234-2.145-3.926-3.025-6.21-1.959-2.413 1.125-3.456 3.992-2.331 6.405s3.992 3.456 6.405 2.331c1.568-0.743 2.658-2.266 2.773-4.054l0.001-0.014 4.514-2.105 0.434 4.961c-1.306 0.876-2.155 2.347-2.155 4.016 0 0.148 0.007 0.295 0.020 0.439l-0.001-0.019c0.232 2.652 2.57 4.613 5.221 4.381s4.613-2.57 4.382-5.221c-0.22-2.511-2.328-4.402-4.802-4.399l-0.355-4.051 10.135-4.726c1.971-0.919 2.804-3.302 1.885-5.273l-12.389 5.778-1.191-13.619zM7.154 21.064c-0.44 0.752-1.244 1.249-2.164 1.249-1.38 0-2.499-1.119-2.499-2.499 0-0.46 0.124-0.891 0.341-1.261l-0.006 0.012c0.44-0.752 1.244-1.249 2.164-1.249 1.38 0 2.499 1.119 2.499 2.499 0 0.46-0.124 0.891-0.341 1.261l0.006-0.012zM19.56 28.227c-0.44 0.752-1.244 1.249-2.164 1.249-1.38 0-2.499-1.119-2.499-2.499 0-0.46 0.124-0.891 0.341-1.261l-0.006 0.012c0.44-0.752 1.244-1.249 2.164-1.249 1.38 0 2.499 1.119 2.499 2.499 0 0.46-0.124 0.891-0.341 1.261l0.006-0.012z"></path>
</svg>
