<!-- Generated by IcoMoon.io -->
<svg version="1.1" xmlns="http://www.w3.org/2000/svg" width="28" height="32" viewBox="0 0 28 32">
<title>scissors-two</title>
<path fill="#008fdd" d="M4.796 0.475c-2.057 1.441-2.6 4.305-1.159 6.363l7.409 10.582-2.694 3.847c-2.473-1.433-5.674-0.759-7.344 1.627-1.763 2.518-1.151 5.989 1.367 7.753s5.99 1.152 7.754-1.367c0.63-0.89 1.007-1.998 1.007-3.193 0-0.903-0.215-1.756-0.597-2.51l0.015 0.032 3.3-4.713 3.299 4.712c-0.367 0.722-0.582 1.575-0.582 2.478 0 1.196 0.377 2.304 1.019 3.211l-0.012-0.017c1.764 2.519 5.235 3.13 7.754 1.367s3.131-5.235 1.367-7.753c-1.67-2.385-4.87-3.059-7.344-1.627l-2.695-3.848 7.409-10.581c1.441-2.058 0.898-4.923-1.159-6.364l-9.056 12.936-9.057-12.936zM8.466 26.075c0 1.594-1.292 2.886-2.886 2.886s-2.886-1.292-2.886-2.886v0c0-1.594 1.292-2.886 2.886-2.886s2.886 1.292 2.886 2.886v0zM25.013 26.075c0 1.594-1.292 2.886-2.886 2.886s-2.886-1.292-2.886-2.886v0c0-1.594 1.292-2.886 2.886-2.886s2.886 1.292 2.886 2.886v0z"></path>
</svg>
