<!-- Generated by IcoMoon.io -->
<svg version="1.1" xmlns="http://www.w3.org/2000/svg" width="39" height="32" viewBox="0 0 39 32">
<title>twitter</title>
<path fill="#fff" d="M39.011 3.752c-1.45 0.636-2.996 1.059-4.607 1.263 1.658-0.995 2.903-2.533 3.502-4.363l0.016-0.056c-1.46 0.881-3.159 1.552-4.969 1.918l-0.102 0.017c-1.463-1.561-3.538-2.534-5.84-2.534-4.416 0-7.995 3.579-7.995 7.995 0 0.003 0 0.006 0 0.009v-0c0 0.634 0.054 1.243 0.185 1.824-6.648-0.325-12.531-3.512-16.484-8.366-0.687 1.158-1.093 2.553-1.096 4.042v0.001c0.003 2.759 1.4 5.191 3.524 6.629l0.028 0.018c-1.331-0.037-2.571-0.398-3.652-1.006l0.040 0.021v0.087c0 3.887 2.772 7.115 6.407 7.858-0.61 0.167-1.311 0.264-2.035 0.264-0.022 0-0.043-0-0.065-0l0.003 0c-0.512 0-1.029-0.030-1.514-0.135 1.035 3.166 3.976 5.495 7.472 5.57-2.699 2.127-6.149 3.411-9.899 3.411-0.006 0-0.012 0-0.017 0h0.001c-0.656 0-1.285-0.028-1.914-0.11 3.446 2.251 7.665 3.59 12.197 3.59 0.025 0 0.051-0 0.076-0h-0.004c14.717 0 22.764-12.191 22.764-22.759 0-0.353-0.012-0.694-0.030-1.034 1.583-1.142 2.914-2.519 3.972-4.095l0.036-0.057z"></path>
</svg>
